<?xml version="1.0" encoding="UTF-8"?>
<svg fill="#c0f" width="700pt" height="700pt" version="1.1" viewBox="0 0 650 650" xmlns="http://www.w3.org/2000/svg">
 <path d="m365.64 27.176c-2.957-5.9336-9.0117-9.6758-15.645-9.6758s-12.688 3.7461-15.645 9.6758l-245 490c-2.7109 5.4258-2.4336 11.863 0.75391 17.027 3.2031 5.1641 8.8203 8.2969 14.891 8.2969h490c6.0742 0 11.691-3.1328 14.891-8.2969 3.1836-5.1641 3.4648-11.602 0.75391-17.027zm0 192.5c-2.957-5.9336-9.0117-9.6758-15.645-9.6758s-12.688 3.7461-15.645 9.6758l-105 210c-2.7109 5.4258-2.4336 11.863 0.75391 17.027 3.2031 5.1641 8.8203 8.2969 14.891 8.2969h210c6.0742 0 11.691-3.1328 14.891-8.2969 3.1836-5.1641 3.4648-11.602 0.75391-17.027z" fill-rule="evenodd"/>
</svg>
