<?xml version="1.0" encoding="utf-8"?>
<!-- Generator: Adobe Illustrator 27.1.1, SVG Export Plug-In . SVG Version: 6.00 Build 0)  -->
<svg fill="#c0f" version="1.1" id="Layer_1" xmlns="http://www.w3.org/2000/svg" xmlns:xlink="http://www.w3.org/1999/xlink" x="0px" y="0px"
	 viewBox="70 120 480 480" style="enable-background:new 0 0 700 700;" xml:space="preserve">
<style type="text/css">
	.st0{fill-rule:evenodd;clip-rule:evenodd;}
</style>
<path class="st0" d="M377,137.3c-16.6-10-37.4-10-54,0l-140,84c-2.6,1.6-5,3.3-7.2,5.2L350,331.1l174.3-104.6
	c-2.2-1.9-4.7-3.7-7.2-5.2L377,137.3z M541.6,256.9L367.5,361.4v208.8c3.3-1.2,6.5-2.7,9.5-4.5l140-84c15.8-9.5,25.5-26.6,25.5-45
	V266.3C542.5,263.1,542.2,260,541.6,256.9L541.6,256.9z M332.5,570.2V361.4L158.3,256.9c-0.6,3.1-0.8,6.2-0.8,9.4v170.4
	c0,18.4,9.7,35.5,25.5,45l140,84C326,567.5,329.2,569,332.5,570.2L332.5,570.2z"/>
</svg>
