<?xml version="1.0" encoding="UTF-8"?>
<svg fill="#c0f" width="700pt" height="700pt" version="1.1" viewBox="0 0 700 700" xmlns="http://www.w3.org/2000/svg" xmlns:xlink="http://www.w3.org/1999/xlink">
 <defs>
  <symbol id="t" overflow="visible">
   <path d="m7.3125-0.4375c-0.38672 0.19922-0.78125 0.34375-1.1875 0.4375-0.40625 0.10156-0.83594 0.15625-1.2812 0.15625-1.3242 0-2.3711-0.36719-3.1406-1.1094-0.77344-0.73828-1.1562-1.7422-1.1562-3.0156 0-1.2695 0.38281-2.2734 1.1562-3.0156 0.76953-0.73828 1.8164-1.1094 3.1406-1.1094 0.44531 0 0.875 0.054688 1.2812 0.15625 0.40625 0.09375 0.80078 0.24219 1.1875 0.4375v1.6406c-0.38672-0.25781-0.76562-0.44531-1.1406-0.5625-0.36719-0.125-0.75-0.1875-1.1562-0.1875-0.73047 0-1.3086 0.23438-1.7344 0.70312-0.41797 0.46875-0.625 1.1172-0.625 1.9375 0 0.82422 0.20703 1.4688 0.625 1.9375 0.42578 0.46875 1.0039 0.70312 1.7344 0.70312 0.40625 0 0.78906-0.054687 1.1562-0.17188 0.375-0.125 0.75391-0.31641 1.1406-0.57812z"/>
  </symbol>
  <symbol id="b" overflow="visible">
   <path d="m5.3438-4.3438c-0.16797-0.070312-0.33594-0.125-0.5-0.15625-0.16797-0.039062-0.33594-0.0625-0.5-0.0625-0.49219 0-0.86719 0.15625-1.125 0.46875-0.26172 0.3125-0.39062 0.76172-0.39062 1.3438v2.75h-1.9062v-5.9688h1.9062v0.98438c0.23828-0.38281 0.51562-0.66406 0.82812-0.84375 0.32031-0.1875 0.70703-0.28125 1.1562-0.28125 0.0625 0 0.12891 0.007813 0.20312 0.015625 0.070313 0 0.17969 0.011719 0.32812 0.03125z"/>
  </symbol>
  <symbol id="a" overflow="visible">
   <path d="m6.875-3v0.54688h-4.4688c0.050781 0.44922 0.21094 0.78906 0.48438 1.0156 0.28125 0.21875 0.67188 0.32812 1.1719 0.32812 0.39453 0 0.80078-0.054687 1.2188-0.17188 0.42578-0.125 0.86328-0.30469 1.3125-0.54688v1.4688c-0.46094 0.16797-0.91406 0.29297-1.3594 0.375-0.44922 0.09375-0.90234 0.14062-1.3594 0.14062-1.0742 0-1.9141-0.26953-2.5156-0.8125-0.59375-0.55078-0.89062-1.3281-0.89062-2.3281 0-0.96875 0.28906-1.7266 0.875-2.2812 0.59375-0.5625 1.4062-0.84375 2.4375-0.84375 0.9375 0 1.6875 0.28125 2.25 0.84375s0.84375 1.3203 0.84375 2.2656zm-1.9688-0.625c0-0.36328-0.10547-0.65625-0.3125-0.875-0.21094-0.22656-0.48438-0.34375-0.82812-0.34375-0.36719 0-0.66797 0.10547-0.90625 0.3125-0.23047 0.21094-0.37109 0.51172-0.42188 0.90625z"/>
  </symbol>
  <symbol id="e" overflow="visible">
   <path d="m3.5938-2.6875c-0.39844 0-0.69922 0.070312-0.90625 0.20312-0.19922 0.13672-0.29688 0.33594-0.29688 0.59375 0 0.25 0.078125 0.44531 0.23438 0.57812 0.16406 0.13672 0.39453 0.20312 0.6875 0.20312 0.35156 0 0.64844-0.12891 0.89062-0.39062 0.25-0.25781 0.375-0.58203 0.375-0.96875v-0.21875zm2.9062-0.71875v3.4062h-1.9219v-0.89062c-0.25 0.36719-0.53906 0.63281-0.85938 0.79688-0.32422 0.16406-0.71484 0.25-1.1719 0.25-0.61719 0-1.1172-0.17578-1.5-0.53125-0.38672-0.36328-0.57812-0.83594-0.57812-1.4219 0-0.69531 0.23828-1.207 0.71875-1.5312 0.47656-0.32031 1.2344-0.48438 2.2656-0.48438h1.125v-0.15625c0-0.30078-0.12109-0.51953-0.35938-0.65625-0.24219-0.14453-0.60938-0.21875-1.1094-0.21875-0.40625 0-0.78906 0.042969-1.1406 0.125-0.35547 0.085938-0.68359 0.21094-0.98438 0.375v-1.4531c0.41406-0.10156 0.82812-0.17969 1.2344-0.23438 0.41406-0.050781 0.82812-0.078125 1.2344-0.078125 1.0703 0 1.8477 0.21484 2.3281 0.64062 0.47656 0.42969 0.71875 1.1172 0.71875 2.0625z"/>
  </symbol>
  <symbol id="d" overflow="visible">
   <path d="m3-7.6562v1.6875h1.9688v1.375h-1.9688v2.5156c0 0.28125 0.050781 0.47656 0.15625 0.57812 0.11328 0.09375 0.33203 0.14062 0.65625 0.14062h0.98438v1.3594h-1.6406c-0.75 0-1.2812-0.15625-1.5938-0.46875s-0.46875-0.84766-0.46875-1.6094v-2.5156h-0.95312v-1.375h0.95312v-1.6875z"/>
  </symbol>
  <symbol id="j" overflow="visible">
   <path d="m4.9688-5.0938v-3.1875h1.9219v8.2812h-1.9219v-0.85938c-0.26172 0.35547-0.55469 0.61719-0.875 0.78125-0.3125 0.15625-0.67188 0.23438-1.0781 0.23438-0.74219 0-1.3516-0.28906-1.8281-0.875-0.46875-0.58203-0.70312-1.3359-0.70312-2.2656 0-0.91406 0.23438-1.6641 0.70312-2.25 0.47656-0.58203 1.0859-0.875 1.8281-0.875 0.40625 0 0.76562 0.085937 1.0781 0.25 0.32031 0.16797 0.61328 0.42188 0.875 0.76562zm-1.25 3.8594c0.40625 0 0.71094-0.14453 0.92188-0.4375 0.21875-0.30078 0.32812-0.73828 0.32812-1.3125 0-0.5625-0.10938-0.98828-0.32812-1.2812-0.21094-0.30078-0.51562-0.45312-0.92188-0.45312s-0.71875 0.15234-0.9375 0.45312c-0.21094 0.29297-0.3125 0.71875-0.3125 1.2812 0 0.57422 0.10156 1.0117 0.3125 1.3125 0.21875 0.29297 0.53125 0.4375 0.9375 0.4375z"/>
  </symbol>
  <symbol id="i" overflow="visible">
   <path d="m4.0938-1.2344c0.40625 0 0.71094-0.14453 0.92188-0.4375 0.21875-0.30078 0.32812-0.73828 0.32812-1.3125 0-0.5625-0.10938-0.98828-0.32812-1.2812-0.21094-0.30078-0.51562-0.45312-0.92188-0.45312s-0.71875 0.15234-0.9375 0.45312c-0.21875 0.29297-0.32812 0.71875-0.32812 1.2812 0 0.57422 0.10938 1.0117 0.32812 1.3125 0.21875 0.29297 0.53125 0.4375 0.9375 0.4375zm-1.2656-3.8594c0.25781-0.34375 0.54688-0.59766 0.85938-0.76562 0.32031-0.16406 0.69141-0.25 1.1094-0.25 0.73828 0 1.3438 0.29297 1.8125 0.875 0.46875 0.58594 0.70312 1.3359 0.70312 2.25 0 0.92969-0.23438 1.6836-0.70312 2.2656-0.46875 0.58594-1.0742 0.875-1.8125 0.875-0.41797 0-0.78906-0.085938-1.1094-0.25-0.3125-0.16406-0.60156-0.42188-0.85938-0.76562v0.85938h-1.9062v-8.2812h1.9062z"/>
  </symbol>
  <symbol id="h" overflow="visible">
   <path d="m0.14062-5.9688h1.9062l1.5938 4.0469 1.3594-4.0469h1.9062l-2.5 6.5312c-0.25 0.66406-0.54688 1.1289-0.89062 1.3906-0.33594 0.26953-0.77734 0.40625-1.3281 0.40625h-1.0938v-1.25h0.59375c0.32031 0 0.55469-0.054687 0.70312-0.15625 0.14453-0.10547 0.25781-0.29297 0.34375-0.5625l0.0625-0.15625z"/>
  </symbol>
  <symbol id="g" overflow="visible">
   <path d="m0.92188-8.2812h1.9062v4.5l2.1875-2.1875h2.2188l-2.9219 2.7344 3.1406 3.2344h-2.2969l-2.3281-2.4844v2.4844h-1.9062z"/>
  </symbol>
  <symbol id="f" overflow="visible">
   <path d="m6.4375-4.9688c0.25-0.375 0.53516-0.65625 0.85938-0.84375 0.33203-0.19531 0.69531-0.29688 1.0938-0.29688 0.6875 0 1.207 0.21484 1.5625 0.64062 0.36328 0.41797 0.54688 1.0312 0.54688 1.8438v3.625h-1.9219v-3.1094c0.007813-0.039063 0.015625-0.085937 0.015625-0.14062v-0.21875c0-0.41406-0.0625-0.71875-0.1875-0.90625-0.125-0.19531-0.32422-0.29688-0.59375-0.29688-0.36719 0-0.64844 0.15234-0.84375 0.45312-0.19922 0.29297-0.30469 0.72656-0.3125 1.2969v2.9219h-1.9062v-3.1094c0-0.65625-0.058594-1.0781-0.17188-1.2656-0.11719-0.19531-0.32031-0.29688-0.60938-0.29688-0.36719 0-0.64844 0.15234-0.84375 0.45312-0.19922 0.30469-0.29688 0.73047-0.29688 1.2812v2.9375h-1.9219v-5.9688h1.9219v0.875c0.22656-0.33203 0.49219-0.58203 0.79688-0.75 0.30078-0.17578 0.64062-0.26562 1.0156-0.26562 0.40625 0 0.76562 0.10156 1.0781 0.29688 0.32031 0.19922 0.5625 0.48047 0.71875 0.84375z"/>
  </symbol>
  <symbol id="c" overflow="visible">
   <path d="m3.75-4.75c-0.41797 0-0.74219 0.15625-0.96875 0.46875-0.21875 0.30469-0.32812 0.73438-0.32812 1.2969 0 0.57422 0.10938 1.0156 0.32812 1.3281 0.22656 0.30469 0.55078 0.45312 0.96875 0.45312 0.41406 0 0.73438-0.14844 0.95312-0.45312 0.21875-0.3125 0.32812-0.75391 0.32812-1.3281 0-0.5625-0.10938-0.99219-0.32812-1.2969-0.21875-0.3125-0.53906-0.46875-0.95312-0.46875zm0-1.3594c1.0312 0 1.832 0.27734 2.4062 0.82812 0.58203 0.55469 0.875 1.3203 0.875 2.2969 0 0.99219-0.29297 1.7617-0.875 2.3125-0.57422 0.55469-1.375 0.82812-2.4062 0.82812s-1.8398-0.27344-2.4219-0.82812c-0.57422-0.55078-0.85938-1.3203-0.85938-2.3125 0-0.97656 0.28516-1.7422 0.85938-2.2969 0.58203-0.55078 1.3906-0.82812 2.4219-0.82812z"/>
  </symbol>
  <symbol id="s" overflow="visible">
   <path d="m0.17188-5.9688h1.9062l1.4844 4.125 1.4688-4.125h1.9219l-2.3594 5.9688h-2.0781z"/>
  </symbol>
  <symbol id="r" overflow="visible">
   <path d="m4.8438-8.2812v1.25h-1.0625c-0.27344 0-0.46094 0.054688-0.5625 0.15625-0.10547 0.09375-0.15625 0.26172-0.15625 0.5v0.40625h1.625v1.375h-1.625v4.5938h-1.9062v-4.5938h-0.95312v-1.375h0.95312v-0.40625c0-0.65625 0.17578-1.1328 0.53125-1.4375 0.36328-0.3125 0.92578-0.46875 1.6875-0.46875z"/>
  </symbol>
  <symbol id="q" overflow="visible">
   <path d="m6.9062-3.625v3.625h-1.9062v-2.7656c0-0.51953-0.015625-0.87891-0.046875-1.0781-0.023437-0.19531-0.058594-0.34375-0.10938-0.4375-0.074219-0.125-0.17969-0.21875-0.3125-0.28125-0.125-0.070312-0.27344-0.10938-0.4375-0.10938-0.39844 0-0.71094 0.15625-0.9375 0.46875-0.21875 0.30469-0.32812 0.72656-0.32812 1.2656v2.9375h-1.9062v-8.2812h1.9062v3.1875c0.28125-0.34375 0.58203-0.59766 0.90625-0.76562 0.32031-0.16406 0.67969-0.25 1.0781-0.25 0.6875 0 1.207 0.21484 1.5625 0.64062 0.35156 0.41797 0.53125 1.0312 0.53125 1.8438z"/>
  </symbol>
  <symbol id="p" overflow="visible">
   <path d="m1-7.9531h2.2969l2.8906 5.4531v-5.4531h1.9375v7.9531h-2.2812l-2.9062-5.4531v5.4531h-1.9375z"/>
  </symbol>
  <symbol id="o" overflow="visible">
   <path d="m0.85938-2.3281v-3.6406h1.9062v0.59375 1.2188 0.98438c0 0.48047 0.007813 0.82422 0.03125 1.0312 0.019531 0.21094 0.0625 0.36719 0.125 0.46875 0.082031 0.125 0.1875 0.22656 0.3125 0.29688 0.125 0.0625 0.26562 0.09375 0.42188 0.09375 0.40625 0 0.71875-0.14844 0.9375-0.45312 0.22656-0.3125 0.34375-0.73828 0.34375-1.2812v-2.9531h1.9062v5.9688h-1.9062v-0.85938c-0.28125 0.34375-0.58594 0.60156-0.90625 0.76562-0.32422 0.16406-0.67969 0.25-1.0625 0.25-0.6875 0-1.2148-0.20703-1.5781-0.625-0.35547-0.42578-0.53125-1.0469-0.53125-1.8594z"/>
  </symbol>
  <symbol id="n" overflow="visible">
   <path d="m6.9062-3.625v3.625h-1.9062v-2.7812c0-0.50781-0.015625-0.86328-0.046875-1.0625-0.023437-0.19531-0.058594-0.34375-0.10938-0.4375-0.074219-0.125-0.17969-0.21875-0.3125-0.28125-0.125-0.070312-0.27344-0.10938-0.4375-0.10938-0.39844 0-0.71094 0.15625-0.9375 0.46875-0.21875 0.30469-0.32812 0.72656-0.32812 1.2656v2.9375h-1.9062v-5.9688h1.9062v0.875c0.28125-0.34375 0.58203-0.59766 0.90625-0.76562 0.32031-0.16406 0.67969-0.25 1.0781-0.25 0.6875 0 1.207 0.21484 1.5625 0.64062 0.35156 0.41797 0.53125 1.0312 0.53125 1.8438z"/>
  </symbol>
  <symbol id="m" overflow="visible">
   <path d="m1-7.9531h3.4062c1.0078 0 1.7852 0.22656 2.3281 0.67188 0.53906 0.44922 0.8125 1.0898 0.8125 1.9219 0 0.83594-0.27344 1.4766-0.8125 1.9219-0.54297 0.44922-1.3203 0.67188-2.3281 0.67188h-1.3594v2.7656h-2.0469zm2.0469 1.4844v2.2188h1.1406c0.39453 0 0.70312-0.09375 0.92188-0.28125 0.21875-0.19531 0.32812-0.47266 0.32812-0.82812 0-0.35156-0.10938-0.625-0.32812-0.8125-0.21875-0.19531-0.52734-0.29688-0.92188-0.29688z"/>
  </symbol>
  <symbol id="l" overflow="visible">
   <path d="m0.92188-5.9688h1.9062v5.8594c0 0.80078-0.19531 1.4102-0.57812 1.8281-0.38672 0.42578-0.94531 0.64062-1.6719 0.64062h-0.9375v-1.25h0.32812c0.36328 0 0.61328-0.085937 0.75-0.25 0.13281-0.16797 0.20312-0.49219 0.20312-0.96875zm0-2.3125h1.9062v1.5469h-1.9062z"/>
  </symbol>
  <symbol id="k" overflow="visible">
   <path d="m5.7344-5.7812v1.5625c-0.26172-0.17578-0.52344-0.30469-0.78125-0.39062-0.26172-0.09375-0.53125-0.14062-0.8125-0.14062-0.53125 0-0.94922 0.15625-1.25 0.46875-0.29297 0.3125-0.4375 0.74609-0.4375 1.2969 0 0.5625 0.14453 1 0.4375 1.3125 0.30078 0.3125 0.71875 0.46875 1.25 0.46875 0.30078 0 0.58203-0.039063 0.84375-0.125 0.26953-0.09375 0.51953-0.22656 0.75-0.40625v1.5625c-0.30469 0.10547-0.60938 0.17969-0.92188 0.23438-0.30469 0.0625-0.60547 0.09375-0.90625 0.09375-1.0742 0-1.918-0.27344-2.5312-0.82812-0.60547-0.55078-0.90625-1.3203-0.90625-2.3125 0-0.97656 0.30078-1.7422 0.90625-2.2969 0.61328-0.55078 1.457-0.82812 2.5312-0.82812 0.3125 0 0.61719 0.03125 0.92188 0.09375 0.30078 0.054687 0.60156 0.13281 0.90625 0.23438z"/>
  </symbol>
 </defs>
 <g>
  <path d="m673.31 560h-646.62l323.32-560zm-100.53-58.207-222.73-385.79-222.73 385.79z"/>
  <use x="26.6875" y="592.738281" xlink:href="#t"/>
  <use x="34.695312" y="592.738281" xlink:href="#b"/>
  <use x="40.078125" y="592.738281" xlink:href="#a"/>
  <use x="47.480469" y="592.738281" xlink:href="#e"/>
  <use x="54.84375" y="592.738281" xlink:href="#d"/>
  <use x="60.058594" y="592.738281" xlink:href="#a"/>
  <use x="67.460938" y="592.738281" xlink:href="#j"/>
  <use x="79.070312" y="592.738281" xlink:href="#i"/>
  <use x="86.882812" y="592.738281" xlink:href="#h"/>
  <use x="97.796875" y="592.738281" xlink:href="#g"/>
  <use x="105.054688" y="592.738281" xlink:href="#e"/>
  <use x="112.417969" y="592.738281" xlink:href="#b"/>
  <use x="117.800781" y="592.738281" xlink:href="#a"/>
  <use x="125.199219" y="592.738281" xlink:href="#a"/>
  <use x="132.601562" y="592.738281" xlink:href="#f"/>
  <use x="143.972656" y="592.738281" xlink:href="#c"/>
  <use x="151.46875" y="592.738281" xlink:href="#s"/>
  <use x="26.6875" y="603.652344" xlink:href="#r"/>
  <use x="31.433594" y="603.652344" xlink:href="#b"/>
  <use x="36.816406" y="603.652344" xlink:href="#c"/>
  <use x="44.3125" y="603.652344" xlink:href="#f"/>
  <use x="59.484375" y="603.652344" xlink:href="#d"/>
  <use x="64.699219" y="603.652344" xlink:href="#q"/>
  <use x="72.46875" y="603.652344" xlink:href="#a"/>
  <use x="83.671875" y="603.652344" xlink:href="#p"/>
  <use x="92.804688" y="603.652344" xlink:href="#c"/>
  <use x="100.300781" y="603.652344" xlink:href="#o"/>
  <use x="108.070312" y="603.652344" xlink:href="#n"/>
  <use x="119.636719" y="603.652344" xlink:href="#m"/>
  <use x="127.636719" y="603.652344" xlink:href="#b"/>
  <use x="133.015625" y="603.652344" xlink:href="#c"/>
  <use x="140.515625" y="603.652344" xlink:href="#l"/>
  <use x="144.253906" y="603.652344" xlink:href="#a"/>
  <use x="151.65625" y="603.652344" xlink:href="#k"/>
  <use x="158.125" y="603.652344" xlink:href="#d"/>
 </g>
</svg>
