<?xml version="1.0" encoding="UTF-8"?>
<svg fill="c0f" width="700pt" height="700pt" version="1.1" viewBox="0 0 650 650" xmlns="http://www.w3.org/2000/svg" xmlns:xlink="http://www.w3.org/1999/xlink">
 <defs>
  <symbol id="s" overflow="visible">
   <path d="m6.8594-0.40625c-0.34375 0.17969-0.71094 0.3125-1.0938 0.40625-0.38672 0.09375-0.78906 0.14062-1.2031 0.14062-1.25 0-2.2422-0.34375-2.9688-1.0312-0.71875-0.69531-1.0781-1.6445-1.0781-2.8438 0-1.1875 0.35938-2.1289 1.0781-2.8281 0.72656-0.69531 1.7188-1.0469 2.9688-1.0469 0.41406 0 0.81641 0.046875 1.2031 0.14062 0.38281 0.09375 0.75 0.23438 1.0938 0.42188v1.5469c-0.35547-0.25-0.70312-0.42969-1.0469-0.54688-0.34375-0.11328-0.71094-0.17188-1.0938-0.17188-0.6875 0-1.2305 0.22656-1.625 0.67188-0.39844 0.4375-0.59375 1.043-0.59375 1.8125 0 0.77344 0.19531 1.3828 0.59375 1.8281 0.39453 0.4375 0.9375 0.65625 1.625 0.65625 0.38281 0 0.75-0.054688 1.0938-0.17188 0.34375-0.11328 0.69141-0.28906 1.0469-0.53125z"/>
  </symbol>
  <symbol id="c" overflow="visible">
   <path d="m5.0312-4.0781c-0.15625-0.070313-0.3125-0.125-0.46875-0.15625-0.15625-0.039063-0.3125-0.0625-0.46875-0.0625-0.46875 0-0.82812 0.15234-1.0781 0.45312-0.24219 0.29297-0.35938 0.71484-0.35938 1.2656v2.5781h-1.7969v-5.6094h1.7969v0.92188c0.22656-0.36328 0.48828-0.62891 0.78125-0.79688 0.30078-0.16406 0.66016-0.25 1.0781-0.25 0.0625 0 0.125 0.007813 0.1875 0.015625 0.070313 0 0.17578 0.007812 0.3125 0.015625z"/>
  </symbol>
  <symbol id="a" overflow="visible">
   <path d="m6.4531-2.8125v0.5h-4.1875c0.039063 0.42969 0.19141 0.74609 0.45312 0.95312 0.25781 0.21094 0.625 0.3125 1.0938 0.3125 0.375 0 0.75781-0.050781 1.1562-0.15625 0.39453-0.11328 0.80078-0.28516 1.2188-0.51562v1.375c-0.41797 0.16797-0.83984 0.28906-1.2656 0.35938-0.42969 0.082031-0.85156 0.125-1.2656 0.125-1.0234 0-1.8125-0.25391-2.375-0.76562-0.5625-0.51953-0.84375-1.2422-0.84375-2.1719 0-0.91406 0.27344-1.6328 0.82812-2.1562 0.55078-0.51953 1.3125-0.78125 2.2812-0.78125 0.88281 0 1.5859 0.26562 2.1094 0.79688 0.53125 0.52344 0.79688 1.2305 0.79688 2.125zm-1.8438-0.59375c0-0.34375-0.10156-0.61719-0.29688-0.82812-0.19922-0.20703-0.46094-0.3125-0.78125-0.3125-0.34375 0-0.625 0.10156-0.84375 0.29688-0.21094 0.1875-0.34375 0.46875-0.40625 0.84375z"/>
  </symbol>
  <symbol id="f" overflow="visible">
   <path d="m3.375-2.5156c-0.375 0-0.65625 0.0625-0.84375 0.1875s-0.28125 0.3125-0.28125 0.5625c0 0.21875 0.070312 0.39844 0.21875 0.53125 0.15625 0.125 0.36719 0.1875 0.64062 0.1875 0.33203 0 0.61328-0.11719 0.84375-0.35938 0.22656-0.23828 0.34375-0.53906 0.34375-0.90625v-0.20312zm2.7344-0.6875v3.2031h-1.8125v-0.82812c-0.24219 0.33594-0.51172 0.57812-0.8125 0.73438-0.29297 0.15625-0.65625 0.23438-1.0938 0.23438-0.57422 0-1.043-0.16406-1.4062-0.5-0.36719-0.34375-0.54688-0.78516-0.54688-1.3281 0-0.65625 0.22266-1.1328 0.67188-1.4375 0.45703-0.3125 1.1719-0.46875 2.1406-0.46875h1.0469v-0.14062c0-0.28125-0.10938-0.48438-0.32812-0.60938-0.21875-0.13281-0.57031-0.20312-1.0469-0.20312-0.38672 0-0.74609 0.042969-1.0781 0.125-0.32422 0.074219-0.625 0.18359-0.90625 0.32812v-1.3594c0.375-0.09375 0.75391-0.16016 1.1406-0.20312 0.39453-0.050781 0.78516-0.078125 1.1719-0.078125 1.0078 0 1.7383 0.19922 2.1875 0.59375 0.44531 0.39844 0.67188 1.043 0.67188 1.9375z"/>
  </symbol>
  <symbol id="b" overflow="visible">
   <path d="m2.8125-7.2031v1.5938h1.8594v1.2812h-1.8594v2.375c0 0.26172 0.050781 0.4375 0.15625 0.53125 0.10156 0.09375 0.3125 0.14062 0.625 0.14062h0.92188v1.2812h-1.5469c-0.71094 0-1.2109-0.14453-1.5-0.4375-0.29297-0.30078-0.4375-0.80469-0.4375-1.5156v-2.375h-0.89062v-1.2812h0.89062v-1.5938z"/>
  </symbol>
  <symbol id="i" overflow="visible">
   <path d="m4.6719-4.7812v-3h1.7969v7.7812h-1.7969v-0.8125c-0.25 0.33594-0.52734 0.57812-0.82812 0.73438-0.29297 0.14453-0.63281 0.21875-1.0156 0.21875-0.6875 0-1.2578-0.26953-1.7031-0.8125-0.44922-0.55078-0.67188-1.2578-0.67188-2.125 0-0.86328 0.22266-1.5664 0.67188-2.1094 0.44531-0.55078 1.0156-0.82812 1.7031-0.82812 0.38281 0 0.72266 0.078125 1.0156 0.23438 0.30078 0.14844 0.57812 0.38672 0.82812 0.71875zm-1.1719 3.625c0.375 0 0.66016-0.14062 0.85938-0.42188 0.20703-0.28125 0.3125-0.6875 0.3125-1.2188s-0.10547-0.9375-0.3125-1.2188c-0.19922-0.28125-0.48438-0.42188-0.85938-0.42188-0.38672 0-0.68359 0.14062-0.89062 0.42188-0.19922 0.28125-0.29688 0.6875-0.29688 1.2188s0.097656 0.9375 0.29688 1.2188c0.20703 0.28125 0.50391 0.42188 0.89062 0.42188z"/>
  </symbol>
  <symbol id="h" overflow="visible">
   <path d="m3.8438-1.1562c0.38281 0 0.67578-0.14062 0.875-0.42188 0.20703-0.28125 0.3125-0.6875 0.3125-1.2188s-0.10547-0.9375-0.3125-1.2188c-0.19922-0.28125-0.49219-0.42188-0.875-0.42188-0.38672 0-0.68359 0.14062-0.89062 0.42188-0.19922 0.28125-0.29688 0.6875-0.29688 1.2188s0.097656 0.9375 0.29688 1.2188c0.20703 0.28125 0.50391 0.42188 0.89062 0.42188zm-1.1875-3.625c0.23828-0.33203 0.50781-0.57031 0.8125-0.71875 0.30078-0.15625 0.64844-0.23438 1.0469-0.23438 0.6875 0 1.25 0.27734 1.6875 0.82812 0.44531 0.54297 0.67188 1.2461 0.67188 2.1094 0 0.86719-0.22656 1.5742-0.67188 2.125-0.4375 0.54297-1 0.8125-1.6875 0.8125-0.39844 0-0.74609-0.078125-1.0469-0.23438-0.30469-0.15625-0.57422-0.39453-0.8125-0.71875v0.8125h-1.7969v-7.7812h1.7969z"/>
  </symbol>
  <symbol id="g" overflow="visible">
   <path d="m0.125-5.6094h1.7969l1.5 3.8125 1.2812-3.8125h1.7969l-2.3594 6.1406c-0.24219 0.625-0.51562 1.0625-0.82812 1.3125s-0.73047 0.375-1.25 0.375h-1.0312v-1.1875h0.5625c0.30078 0 0.51953-0.046875 0.65625-0.14062 0.13281-0.09375 0.24219-0.26562 0.32812-0.51562l0.046875-0.15625z"/>
  </symbol>
  <symbol id="e" overflow="visible">
   <path d="m6.5-3.4062v3.4062h-1.8125v-2.6094c0-0.48828-0.011719-0.82031-0.03125-1-0.023438-0.1875-0.058594-0.32031-0.10938-0.40625-0.074219-0.11328-0.17188-0.20312-0.29688-0.26562-0.11719-0.070312-0.24609-0.10938-0.39062-0.10938-0.375 0-0.67188 0.14844-0.89062 0.4375-0.21094 0.28125-0.3125 0.68359-0.3125 1.2031v2.75h-1.7969v-5.6094h1.7969v0.82812c0.26953-0.33203 0.55469-0.57031 0.85938-0.71875 0.30078-0.15625 0.63281-0.23438 1-0.23438 0.64453 0 1.1328 0.19922 1.4688 0.59375 0.34375 0.39844 0.51562 0.97656 0.51562 1.7344z"/>
  </symbol>
  <symbol id="r" overflow="visible">
   <path d="m0.85938-5.6094h1.7969v5.6094h-1.7969zm0-2.1719h1.7969v1.4531h-1.7969z"/>
  </symbol>
  <symbol id="q" overflow="visible">
   <path d="m4.5469-7.7812v1.1719h-0.98438c-0.26172 0-0.44531 0.046875-0.54688 0.14062-0.09375 0.085938-0.14062 0.24219-0.14062 0.46875v0.39062h1.5312v1.2812h-1.5312v4.3281h-1.7812v-4.3281h-0.90625v-1.2812h0.90625v-0.39062c0-0.60156 0.16406-1.0508 0.5-1.3438 0.34375-0.28906 0.86719-0.4375 1.5781-0.4375z"/>
  </symbol>
  <symbol id="d" overflow="visible">
   <path d="m3.5312-4.4531c-0.39844 0-0.69922 0.14062-0.90625 0.42188-0.21094 0.28125-0.3125 0.69531-0.3125 1.2344 0 0.54297 0.10156 0.95312 0.3125 1.2344 0.20703 0.28125 0.50781 0.42188 0.90625 0.42188 0.38281 0 0.67969-0.14062 0.89062-0.42188 0.20703-0.28125 0.3125-0.69141 0.3125-1.2344 0-0.53906-0.10547-0.95312-0.3125-1.2344-0.21094-0.28125-0.50781-0.42188-0.89062-0.42188zm0-1.2812c0.95703 0 1.707 0.26172 2.25 0.78125 0.53906 0.52344 0.8125 1.2422 0.8125 2.1562 0 0.91797-0.27344 1.6367-0.8125 2.1562-0.54297 0.52344-1.293 0.78125-2.25 0.78125-0.96875 0-1.7305-0.25781-2.2812-0.78125-0.54297-0.51953-0.8125-1.2383-0.8125-2.1562 0-0.91406 0.26953-1.6328 0.8125-2.1562 0.55078-0.51953 1.3125-0.78125 2.2812-0.78125z"/>
  </symbol>
  <symbol id="p" overflow="visible">
   <path d="m6.0625-4.6719c0.21875-0.34375 0.48438-0.60156 0.79688-0.78125 0.3125-0.1875 0.65625-0.28125 1.0312-0.28125 0.64453 0 1.1328 0.19922 1.4688 0.59375 0.34375 0.39844 0.51562 0.97656 0.51562 1.7344v3.4062h-1.8125v-2.9219c0.007812-0.039063 0.015625-0.082031 0.015625-0.125v-0.21875c0-0.39453-0.058594-0.67969-0.17188-0.85938-0.11719-0.17578-0.30469-0.26562-0.5625-0.26562-0.34375 0-0.60938 0.14062-0.79688 0.42188s-0.28125 0.6875-0.28125 1.2188v2.75h-1.8125v-2.9219c0-0.625-0.054687-1.0234-0.15625-1.2031-0.10547-0.17578-0.29297-0.26562-0.5625-0.26562-0.34375 0-0.60938 0.14062-0.79688 0.42188s-0.28125 0.6875-0.28125 1.2188v2.75h-1.8125v-5.6094h1.8125v0.82812c0.21875-0.32031 0.46875-0.5625 0.75-0.71875 0.28906-0.15625 0.60938-0.23438 0.95312-0.23438 0.38281 0 0.72266 0.09375 1.0156 0.28125 0.30078 0.17969 0.53125 0.4375 0.6875 0.78125z"/>
  </symbol>
  <symbol id="o" overflow="visible">
   <path d="m6.5-3.4062v3.4062h-1.8125v-2.6094c0-0.48828-0.011719-0.82031-0.03125-1-0.023438-0.1875-0.058594-0.32031-0.10938-0.40625-0.074219-0.11328-0.17188-0.20312-0.29688-0.26562-0.11719-0.070312-0.24609-0.10938-0.39062-0.10938-0.375 0-0.67188 0.14844-0.89062 0.4375-0.21094 0.28125-0.3125 0.68359-0.3125 1.2031v2.75h-1.7969v-7.7812h1.7969v3c0.26953-0.33203 0.55469-0.57031 0.85938-0.71875 0.30078-0.15625 0.63281-0.23438 1-0.23438 0.64453 0 1.1328 0.19922 1.4688 0.59375 0.34375 0.39844 0.51562 0.97656 0.51562 1.7344z"/>
  </symbol>
  <symbol id="n" overflow="visible">
   <path d="m0.9375-7.4688h2.1562l2.7188 5.125v-5.125h1.8281v7.4688h-2.1562l-2.7188-5.125v5.125h-1.8281z"/>
  </symbol>
  <symbol id="m" overflow="visible">
   <path d="m0.79688-2.1875v-3.4219h1.8125v0.5625c0 0.30469-0.007813 0.68359-0.015625 1.1406v0.92188c0 0.44922 0.007812 0.77344 0.03125 0.96875 0.019531 0.19922 0.0625 0.34375 0.125 0.4375 0.070312 0.11719 0.16406 0.20312 0.28125 0.26562 0.125 0.0625 0.25781 0.09375 0.40625 0.09375 0.375 0 0.66406-0.14062 0.875-0.42188 0.21875-0.28906 0.32812-0.69141 0.32812-1.2031v-2.7656h1.7969v5.6094h-1.7969v-0.8125c-0.27344 0.32422-0.55859 0.5625-0.85938 0.71875-0.30469 0.15625-0.63672 0.23438-1 0.23438-0.64844 0-1.1406-0.19531-1.4844-0.59375-0.33594-0.39453-0.5-0.97266-0.5-1.7344z"/>
  </symbol>
  <symbol id="l" overflow="visible">
   <path d="m0.9375-7.4688h3.2031c0.94531 0 1.6758 0.21484 2.1875 0.64062 0.50781 0.41797 0.76562 1.0156 0.76562 1.7969s-0.25781 1.3867-0.76562 1.8125c-0.51172 0.41797-1.2422 0.625-2.1875 0.625h-1.2656v2.5938h-1.9375zm1.9375 1.3906v2.0938h1.0625c0.375 0 0.66016-0.085937 0.85938-0.26562 0.20703-0.1875 0.3125-0.44531 0.3125-0.78125 0-0.33203-0.10547-0.58594-0.3125-0.76562-0.19922-0.1875-0.48438-0.28125-0.85938-0.28125z"/>
  </symbol>
  <symbol id="k" overflow="visible">
   <path d="m0.85938-5.6094h1.7969v5.5156c0 0.75-0.18359 1.3203-0.54688 1.7188-0.35547 0.39453-0.875 0.59375-1.5625 0.59375h-0.89062v-1.1875h0.3125c0.34375 0 0.57812-0.078125 0.70312-0.23438 0.125-0.14844 0.1875-0.44531 0.1875-0.89062zm0-2.1719h1.7969v1.4531h-1.7969z"/>
  </symbol>
  <symbol id="j" overflow="visible">
   <path d="m5.3906-5.4375v1.4688c-0.24219-0.16406-0.48438-0.28516-0.73438-0.35938-0.24219-0.082031-0.49609-0.125-0.76562-0.125-0.5 0-0.89062 0.14844-1.1719 0.4375-0.27344 0.29297-0.40625 0.69922-0.40625 1.2188 0 0.52344 0.13281 0.92969 0.40625 1.2188 0.28125 0.29297 0.67188 0.4375 1.1719 0.4375 0.28125 0 0.54688-0.039063 0.79688-0.125 0.25-0.082031 0.48438-0.20312 0.70312-0.35938v1.4531c-0.28125 0.10547-0.57031 0.17969-0.85938 0.23438-0.28125 0.050781-0.57031 0.078125-0.85938 0.078125-1.0117 0-1.8047-0.25391-2.375-0.76562-0.57422-0.51953-0.85938-1.2422-0.85938-2.1719 0-0.92578 0.28516-1.6445 0.85938-2.1562 0.57031-0.51953 1.3633-0.78125 2.375-0.78125 0.28906 0 0.57812 0.027344 0.85938 0.078125 0.28906 0.054688 0.57812 0.125 0.85938 0.21875z"/>
  </symbol>
 </defs>
 <g>
  <path d="m158.21 178.46c-22.562 6.1523-43.078 18.461-57.438 36.922 4.1016 24.617 14.359 45.129 30.77 61.539 26.668-24.617 65.641-34.871 100.51-26.668-34.871-12.309-63.59-38.973-73.848-71.793zm-63.59 47.18c-22.562 34.871-22.562 80 0 114.87 4.1016-22.562 16.41-43.078 30.77-57.438-14.359-16.41-26.668-34.871-30.77-57.438zm36.922 61.539c-16.41 16.41-26.668 38.973-28.719 61.539 14.359 18.461 34.871 30.77 57.438 36.922 10.258-34.871 36.922-61.539 71.793-73.848-34.871 8.207-71.793 0-100.51-24.617zm-38.973-73.848c-6.1523-51.281 20.512-98.461 67.691-118.97 18.461-47.18 67.691-75.898 118.97-71.793 38.973-30.77 96.41-30.77 137.44 0 49.23-6.1523 98.461 20.512 118.97 67.691 47.18 18.461 75.898 67.691 71.793 118.97 28.719 38.973 30.77 96.41 0 137.44 6.1523 49.23-20.512 98.461-67.691 118.97-20.512 47.18-67.691 75.898-118.97 71.793-38.973 28.719-96.41 30.77-137.44 0-51.281 6.1523-98.461-20.512-118.97-67.691-47.18-20.512-75.898-67.691-71.793-118.97-30.77-38.973-30.77-96.41 0-137.44zm77.949-125.13c20.512-6.1523 43.078-6.1523 65.641-2.0508 6.1523-20.512 16.41-38.973 32.82-55.383-41.027 0-80 22.562-98.461 57.438zm73.848 2.0508c34.871 10.258 61.539 36.922 73.848 71.793-8.207-34.871 0-71.793 24.617-100.51-16.41-16.41-38.973-26.668-61.539-28.719-18.461 14.359-32.82 34.871-36.922 57.438zm75.898 84.102c4.1016 14.359 4.1016 30.77 0 45.129 6.1523 2.0508 10.258 2.0508 14.359 4.1016 2.0508-4.1016 6.1523-6.1523 8.207-10.258-10.258-10.258-18.461-24.617-22.562-38.973zm0 53.332c-2.0508 2.0508-2.0508 4.1016-2.0508 6.1523 2.0508-2.0508 4.1016-2.0508 6.1523-4.1016-2.0508 0-4.1016 0-4.1016-2.0508zm-6.1523 16.41c-4.1016 8.207-8.207 16.41-12.309 22.562v26.668c4.1016 6.1523 10.258 14.359 12.309 22.562 8.207 4.1016 16.41 8.207 22.562 12.309h26.668c6.1523-4.1016 14.359-10.258 22.562-12.309 4.1016-8.207 8.207-16.41 12.309-22.562v-26.668c-4.1016-8.207-10.258-14.359-12.309-22.562-8.207-4.1016-16.41-8.207-22.562-12.309h-26.668c-8.207 4.1016-14.359 10.258-22.562 12.309zm-20.512 32.82c-2.0508 0-2.0508 2.0508-4.1016 4.1016 2.0508 0 4.1016 2.0508 4.1016 4.1016v-8.207zm-10.258 8.207c-10.258 12.309-24.617 18.461-38.973 24.617 14.359-4.1016 30.77-4.1016 45.129-2.0508 2.0508-4.1016 2.0508-8.207 4.1016-12.309-4.1016-2.0508-6.1523-6.1523-10.258-10.258zm-6.1523-4.1016c-38.973-34.871-98.461-34.871-139.49 0 41.027 34.871 100.51 34.871 139.49 0zm6.1523-6.1523c4.1016-2.0508 6.1523-6.1523 10.258-10.258-2.0508-4.1016-2.0508-8.207-4.1016-12.309-14.359 4.1016-30.77 4.1016-47.18 0 16.41 4.1016 30.77 12.309 41.027 22.562zm16.41-18.461c0-2.0508 2.0508-6.1523 4.1016-8.207-2.0508 2.0508-4.1016 2.0508-6.1523 2.0508 0 2.0508 0 4.1016 2.0508 6.1523zm8.207-18.461c2.0508-4.1016 2.0508-8.207 4.1016-12.309-14.359-4.1016-28.719-12.309-41.027-22.562 10.258 10.258 18.461 24.617 24.617 38.973 4.1016 0 8.207-2.0508 12.309-4.1016zm6.1523-20.512c8.207-51.281-22.562-102.56-71.793-121.03-10.258 53.332 20.512 104.62 71.793 121.03zm-80-123.08c-22.562-6.1523-47.18-4.1016-67.691 6.1523-8.207 20.512-10.258 45.129-4.1016 67.691 36.922-8.207 73.848 2.0508 100.51 26.668-24.617-26.668-34.871-63.59-28.719-100.51zm-77.949 10.258c-36.922 20.512-57.438 57.438-57.438 100.51 16.41-16.41 34.871-28.719 55.383-34.871-6.1523-20.512-6.1523-43.078 2.0508-65.641zm268.72-75.898c16.41 16.41 28.719 34.871 34.871 55.383 20.512-6.1523 43.078-6.1523 65.641 2.0508-20.512-36.922-59.488-59.488-100.51-57.438zm36.922 63.59c8.207 36.922-2.0508 73.848-26.668 100.51 26.668-24.617 63.59-34.871 100.51-28.719 4.1016-22.562 4.1016-47.18-6.1523-67.691-22.562-8.207-45.129-10.258-67.691-4.1016zm-34.871 108.72c-12.309 10.258-24.617 18.461-38.973 24.617 0 4.1016 2.0508 8.207 4.1016 12.309 4.1016 2.0508 8.207 2.0508 12.309 4.1016 4.1016-14.359 12.309-28.719 22.562-41.027zm-47.18 26.668c-2.0508 0-4.1016 0-6.1523 2.0508 2.0508 0 4.1016 2.0508 8.207 4.1016-2.0508-2.0508-2.0508-4.1016-2.0508-6.1523zm-34.871-4.1016h8.207c-2.0508-2.0508-2.0508-2.0508-4.1016-4.1016 0 2.0508-2.0508 4.1016-4.1016 4.1016zm20.512 0c4.1016-2.0508 8.207-2.0508 12.309-4.1016-4.1016-14.359-4.1016-30.77 0-47.18-4.1016 16.41-12.309 30.77-22.562 41.027 2.0508 4.1016 6.1523 6.1523 10.258 10.258zm20.512-6.1523c49.23-18.461 77.949-69.742 67.691-123.08-49.23 18.461-77.949 71.793-67.691 123.08zm65.641-129.23c-6.1523-22.562-18.461-43.078-36.922-57.438-24.617 4.1016-45.129 14.359-61.539 30.77 24.617 26.668 34.871 65.641 26.668 100.51 10.258-34.871 36.922-63.59 71.793-73.848zm-47.18-63.59c-34.871-22.562-80-22.562-114.87 0 22.562 4.1016 43.078 16.41 57.438 30.77 16.41-14.359 34.871-26.668 57.438-30.77zm135.38 75.898c8.207 20.512 8.207 43.078 4.1016 65.641 20.512 6.1523 38.973 16.41 55.383 32.82 0-41.027-22.562-80-59.488-98.461zm0 73.848c-10.258 34.871-38.973 61.539-71.793 73.848 34.871-8.207 71.793 0 100.51 24.617 16.41-16.41 26.668-38.973 28.719-61.539-14.359-18.461-34.871-32.82-57.438-36.922zm-84.102 75.898c-14.359 4.1016-30.77 4.1016-47.18 0 0 6.1523 0 10.258-2.0508 14.359 4.1016 2.0508 6.1523 6.1523 10.258 8.207 10.258-10.258 24.617-18.461 38.973-22.562zm-53.332 0c-2.0508-2.0508-4.1016-2.0508-6.1523-2.0508 2.0508 2.0508 2.0508 4.1016 4.1016 6.1523 0-2.0508 0-4.1016 2.0508-4.1016zm-53.332-43.078c34.871-38.973 32.82-98.461-2.0508-139.49-32.82 41.027-32.82 100.51 2.0508 139.49zm63.59 36.922c51.281 8.207 102.56-22.562 118.97-71.793-51.281-10.258-102.56 20.512-118.97 71.793zm192.82-24.617c-6.1523 22.562-16.41 43.078-30.77 57.438 14.359 16.41 26.668 34.871 30.77 57.438 22.562-34.871 20.512-80 0-114.87zm-36.922 63.59c-28.719 24.617-65.641 34.871-100.51 26.668 34.871 12.309 61.539 36.922 73.848 71.793 22.562-6.1523 43.078-18.461 57.438-36.922-4.1016-24.617-14.359-45.129-30.77-61.539zm-112.82 24.617c-14.359-4.1016-28.719-12.309-38.973-22.562-4.1016 2.0508-6.1523 6.1523-10.258 10.258 2.0508 4.1016 2.0508 8.207 4.1016 12.309 14.359-4.1016 30.77-4.1016 45.129 0zm-45.129-28.719c-2.0508 0-4.1016-2.0508-4.1016-4.1016v8.207c0-2.0508 2.0508-2.0508 4.1016-4.1016zm10.258 0c41.027 34.871 100.51 32.82 141.54-2.0508-41.027-32.82-100.51-32.82-141.54 2.0508zm180.51 75.898c-16.41 16.41-34.871 28.719-55.383 34.871 4.1016 20.512 4.1016 43.078-2.0508 65.641 36.922-20.512 57.438-59.488 57.438-100.51zm-63.59 36.922c-36.922 8.207-73.848-2.0508-100.51-26.668 24.617 26.668 34.871 63.59 28.719 100.51 22.562 4.1016 47.18 4.1016 67.691-6.1523 8.207-22.562 10.258-45.129 4.1016-67.691zm-108.72-34.871c-10.258-12.309-18.461-24.617-24.617-38.973-4.1016 0-8.207 2.0508-12.309 4.1016-2.0508 4.1016-2.0508 8.207-4.1016 12.309 14.359 4.1016 28.719 12.309 41.027 22.562zm-26.668-47.18c0-2.0508-2.0508-4.1016-2.0508-6.1523 0 2.0508-2.0508 4.1016-4.1016 8.207 2.0508-2.0508 4.1016-2.0508 6.1523-2.0508zm10.258 6.1523c18.461 49.23 69.742 77.949 121.03 67.691-16.41-49.23-69.742-77.949-121.03-67.691zm116.92 153.85c-20.512 8.207-45.129 8.207-65.641 4.1016-6.1523 20.512-16.41 38.973-32.82 55.383 41.027 0 80-22.562 98.461-59.488zm-73.848 0c-34.871-10.258-61.539-38.973-73.848-71.793 8.207 34.871 0 71.793-24.617 100.51 16.41 16.41 38.973 26.668 61.539 28.719 18.461-14.359 30.77-34.871 36.922-57.438zm-75.898-84.102c-4.1016-14.359-4.1016-30.77-2.0508-47.18-4.1016 0-8.207 0-12.309-2.0508-2.0508 4.1016-6.1523 6.1523-10.258 8.207 12.309 12.309 18.461 26.668 24.617 41.027zm0-53.332c0-2.0508 2.0508-4.1016 2.0508-6.1523-2.0508 2.0508-4.1016 2.0508-6.1523 4.1016 2.0508 0 2.0508 0 4.1016 2.0508zm6.1523 10.258c-8.207 51.281 20.512 102.56 71.793 118.97 10.258-51.281-20.512-102.56-71.793-118.97zm24.617 192.82c-22.562-6.1523-43.078-16.41-57.438-30.77-16.41 14.359-34.871 26.668-57.438 30.77 34.871 22.562 80 20.512 114.87 0zm-63.59-36.922c-24.617-28.719-34.871-65.641-26.668-100.51-12.309 34.871-38.973 61.539-71.793 73.848 6.1523 22.562 18.461 43.078 36.922 57.438 24.617-4.1016 45.129-14.359 61.539-30.77zm-24.617-112.82c4.1016-14.359 12.309-28.719 22.562-38.973-2.0508-4.1016-6.1523-6.1523-10.258-10.258-4.1016 2.0508-8.207 2.0508-12.309 4.1016 4.1016 14.359 4.1016 30.77 0 45.129zm28.719-45.129c0-2.0508 2.0508-4.1016 4.1016-4.1016h-8.207l4.1016 4.1016zm0 10.258c-34.871 41.027-34.871 100.51 0 141.54 34.871-41.027 34.871-100.51 0-141.54zm-75.898 180.51c-16.41-16.41-28.719-34.871-34.871-55.383-20.512 4.1016-43.078 4.1016-65.641-2.0508 20.512 36.922 57.438 57.438 100.51 57.438zm-36.922-63.59c-8.207-36.922 2.0508-73.848 26.668-100.51-26.668 24.617-63.59 34.871-100.51 28.719-6.1523 22.562-4.1016 47.18 6.1523 67.691 20.512 8.207 45.129 10.258 67.691 4.1016zm34.871-108.72c10.258-10.258 24.617-18.461 38.973-24.617 0-4.1016-2.0508-8.207-4.1016-12.309-4.1016-2.0508-8.207-2.0508-12.309-4.1016-4.1016 14.359-12.309 28.719-22.562 41.027zm47.18-26.668c2.0508 0 4.1016-2.0508 6.1523-2.0508-2.0508 0-6.1523-2.0508-8.207-4.1016 2.0508 2.0508 2.0508 4.1016 2.0508 6.1523zm-6.1523 10.258c-49.23 18.461-77.949 69.742-67.691 121.03 49.23-16.41 77.949-69.742 67.691-121.03zm-155.9 116.92c-6.1523-20.512-6.1523-45.129-2.0508-65.641-20.512-6.1523-38.973-16.41-55.383-32.82 0 41.027 22.562 80 57.438 98.461zm139.49-149.74c2.0508 0 4.1016 2.0508 6.1523 2.0508-2.0508-2.0508-2.0508-4.1016-4.1016-6.1523 0 2.0508 0 2.0508-2.0508 4.1016zm-10.258 6.1523c-51.281-8.207-102.56 20.512-121.03 71.793 53.332 8.207 104.62-20.512 121.03-71.793zm0-71.793c-18.461-49.23-69.742-77.949-123.08-67.691 18.461 49.23 71.793 77.949 123.08 67.691z"/>
  <use x="70" y="590.769531" xlink:href="#s"/>
  <use x="77.527344" y="590.769531" xlink:href="#c"/>
  <use x="82.585938" y="590.769531" xlink:href="#a"/>
  <use x="89.542969" y="590.769531" xlink:href="#f"/>
  <use x="96.460938" y="590.769531" xlink:href="#b"/>
  <use x="101.363281" y="590.769531" xlink:href="#a"/>
  <use x="108.320312" y="590.769531" xlink:href="#i"/>
  <use x="119.234375" y="590.769531" xlink:href="#h"/>
  <use x="126.574219" y="590.769531" xlink:href="#g"/>
  <use x="136.832031" y="590.769531" xlink:href="#f"/>
  <use x="143.753906" y="590.769531" xlink:href="#e"/>
  <use x="151.054688" y="590.769531" xlink:href="#r"/>
  <use x="70" y="601.027344" xlink:href="#q"/>
  <use x="74.460938" y="601.027344" xlink:href="#c"/>
  <use x="79.519531" y="601.027344" xlink:href="#d"/>
  <use x="86.566406" y="601.027344" xlink:href="#p"/>
  <use x="100.824219" y="601.027344" xlink:href="#b"/>
  <use x="105.726562" y="601.027344" xlink:href="#o"/>
  <use x="113.027344" y="601.027344" xlink:href="#a"/>
  <use x="123.554688" y="601.027344" xlink:href="#n"/>
  <use x="132.140625" y="601.027344" xlink:href="#d"/>
  <use x="139.1875" y="601.027344" xlink:href="#m"/>
  <use x="146.488281" y="601.027344" xlink:href="#e"/>
  <use x="157.359375" y="601.027344" xlink:href="#l"/>
  <use x="164.875" y="601.027344" xlink:href="#c"/>
  <use x="169.933594" y="601.027344" xlink:href="#d"/>
  <use x="176.980469" y="601.027344" xlink:href="#k"/>
  <use x="180.496094" y="601.027344" xlink:href="#a"/>
  <use x="187.453125" y="601.027344" xlink:href="#j"/>
  <use x="193.53125" y="601.027344" xlink:href="#b"/>
 </g>
</svg>
